# AST/ASF file generated using VICON BodyLanguage
# -----------------------------------------------
:version 1.10
:name VICON
:units
  mass 1.0
  length 0.45
  angle deg
:documentation
   .ast/.asf automatically generated from VICON data using
   VICON BodyBuilder and BodyLanguage model FoxedUp or BRILLIANT.MOD
:root
   order TX TY TZ RX RY RZ
   axis XYZ
   position 0 0 0  
   orientation 0 0 0 
:bonedata
  begin
     id 1 
     name lhipjoint
     direction 0.693937 -0.600361 0.397515 
     length 2.37164 
     axis 0 0 0  XYZ
  end
  begin
     id 2 
     name lfemur
     direction 0.34202 -0.939693 0  
     length 6.18497  
     axis 0 0 20  XYZ
    dof rx ry rz
    limits (-160.0 20.0)
           (-70.0 70.0)
           (-60.0 70.0)
  end
  begin
     id 3 
     name ltibia
     direction 0.34202 -0.939693 0   
     length 6.91601   
     axis 0 0 20   XYZ
    dof rx
    limits (-10.0 170.0)
  end
  begin
     id 4 
     name lfoot
     direction 0.0978718 -0.2689 0.958182   
     length 1.81453   
     axis -90 7.62852e-016 20   XYZ
    dof rx rz
    limits (-45.0 90.0)
           (-70.0 20.0)
  end
  begin
     id 5 
     name ltoes
     direction 1.53569e-011 -4.21951e-011 1   
     length 0.912052   
     axis -90 7.62852e-016 20   XYZ
    dof rx
    limits (-90.0 20.0)
  end
  begin
     id 6 
     name rhipjoint
     direction -0.643996 -0.637876 0.422354   
     length 2.23216  
     axis 0 0 0  XYZ 
  end
  begin
     id 7 
     name rfemur
     direction -0.34202 -0.939693 0   
     length 6.15404   
     axis 0 0 -20   XYZ
    dof rx ry rz
    limits (-160.0 20.0)
           (-70.0 70.0)
           (-70.0 60.0)
  end
  begin
     id 8 
     name rtibia
     direction -0.34202 -0.939693 0   
     length 6.86744   
     axis 0 0 -20   XYZ
    dof rx
    limits (-10.0 170.0)
 end
 begin
     id 9 
     name rfoot
     direction -0.118701 -0.326127 0.937844   
     length 1.9243  
     axis -90 -7.62852e-016 -20   XYZ
    dof rx rz
    limits (-45.0 90.0)
           (-20.0 70.0)
  end
  begin
     id 10 
     name rtoes
     direction -1.5356e-011 -4.2181e-011 1   
     length 0.958865   
     axis -90 -7.62852e-016 -20   XYZ
    dof rx
    limits (-90.0 20.0)
  end
  begin
     id 11 
     name lowerback
     direction 0.0310826 0.968686 -0.246334   
     length 2.00021   
     axis 0 0 0   XYZ
    dof rx ry rz
    limits (-20.0 45.0)
           (-30.0 30.0)
           (-30.0 30.0)
  end
  begin
     id 12 
     name upperback
     direction -0.0152834 0.999474 -0.0286152   
     length 2.03728   
     axis 0 0 0   XYZ
    dof rx ry rz
    limits (-20.0 45.0)
           (-30.0 30.0)
           (-30.0 30.0)
  end
  begin
     id 13 
     name thorax
     direction -0.0323701 0.996236 0.0804149   
     length 2.16   
     axis 0 0 0   XYZ
    dof rx ry rz
    limits (-20.0 45.0)
           (-30.0 30.0)
           (-30.0 30.0)
  end
  begin
     id 14 
     name lowerneck
     direction 0.0307935 0.982251 0.185027   
     length 1.43558   
     axis 0 0 0   XYZ
    dof rx ry rz
    limits (-20.0 45.0)
           (-30.0 30.0)
           (-30.0 30.0)
  end
  begin
     id 15 
     name upperneck
     direction -0.0927153 0.994775 0.0427454   
     length 1.44603   
     axis 0 0 0   XYZ
    dof rx ry rz
    limits (-20.0 45.0)
           (-30.0 30.0)
           (-30.0 30.0)
  end
  begin
     id 16
     name head
     direction -0.0341265 0.999406 -0.00472033  
     length 1.45931  
     axis 0 0 0   XYZ
    dof rx ry rz
    limits (-20.0 45.0)
           (-30.0 30.0)
           (-30.0 30.0)
  end
  begin
     id 17 
     name lclavicle
     direction 0.820755 0.555306 -0.134151  
     length 2.66075  
     axis 0 0 0   XYZ
    dof ry rz
    limits (-20.0 10.0)
           (0.0 20.0)
  end
  begin
     id 18 
     name lhumerus
     direction 1 -4.48971e-011 5.24853e-027   
     length 5.0546   
     axis -180 -30 -90   XYZ
    dof rx ry rz
    limits (-60.0 90.0)
           (-90.0 90.0)
           (-90.0 90.0)
  end
  begin
     id 19
     name lradius
     direction 1 -4.48971e-011 2.76575e-028   
     length 3.39013   
     axis -180 -30 -90   XYZ
    dof rx
    limits (-10.0 170.0)
  end
  begin
     id 20
     name lwrist
     direction 1 -4.48939e-011 -2.27826e-027   
     length 1.69507   
     axis 2.17013e-015 90 90   XYZ
    dof ry
    limits (-180.0 0.0)
 end
  begin
     id 21 
     name lhand
     direction 1 -4.49009e-011 -4.55652e-027   
     length 0.572425   
     axis 2.90745e-015 90 90   XYZ
    dof rx rz
    limits (-90.0 90.0)
           (-45.0 45.0)
  end
  begin
     id 22 
     name lfingers
     direction 1 -4.48955e-011 -9.11303e-027   
     length 0.461504   
     axis 5.81489e-015 90 90   XYZ
    dof rx
    limits (0.0 90.0)
  end
  begin
     id 23
     name lthumb
     direction 0.707107 -6.34929e-011 0.707107   
     length 0.66263   
     axis -90 45 2.85299e-015   XYZ
    dof rx rz
    limits (-45.0 45.0)
           (-45.0 45.0)
  end
  begin
     id 24 
     name rclavicle
     direction -0.754477 0.632921 -0.173712   
     length 2.73081  
     axis 0 0 0   XYZ 
    dof ry rz
    limits (-10.0 20.0)
           (-20.0 0.0)
  end
  begin
     id 25 
     name rhumerus
     direction -1 -4.48969e-011 5.1496e-027  
     length 5.0701   
     axis -180 30 90   XYZ
    dof rx ry rz
    limits (-90.0 60.0)
           (-90.0 90.0)
           (-90.0 90.0)
  end
  begin
     id 26 
     name rradius
     direction -1 -4.48967e-011 -7.15624e-028   
     length 3.14957   
     axis -180 30 90   XYZ
    dof rx
    limits (-10.0 170.0)
  end
  begin
     id 27 
     name rwrist
     direction -1 -4.48938e-011 -2.27826e-027   
     length 1.57479   
     axis 2.17013e-015 -90 -90   XYZ
    dof ry
    limits (-180.0 0.0)
  end
  begin
     id 28
     name rhand
     direction -1 -4.49008e-011 -4.55652e-027   
     length 0.718191   
     axis 2.90745e-015 -90 -90   XYZ
    dof rx rz
    limits (-90.0 90.0)
           (-45.0 45.0)
  end
  begin
     id 29
     name rfingers
     direction -1 -4.48953e-011 -9.11303e-027   
     length 0.579024   
     axis 5.81489e-015 -90 -90   XYZ
    dof rx
    limits (0.0 90.0)
  end
  begin
     id 30
     name rthumb
     direction -0.707107 -6.34937e-011 0.707107   
     length 0.831366   
     axis -90 -45 -2.85299e-015   XYZ
    dof rx rz
    limits (-45.0 45.0)
           (-45.0 45.0)
  end
:hierarchy
  begin
    root lhipjoint rhipjoint lowerback
    lhipjoint lfemur
    lfemur ltibia
    ltibia lfoot
    lfoot ltoes
    rhipjoint rfemur
    rfemur rtibia
    rtibia rfoot
    rfoot rtoes
    lowerback upperback
    upperback thorax
    thorax lowerneck lclavicle rclavicle
    lowerneck upperneck
    upperneck head
    lclavicle lhumerus
    lhumerus lradius
    lradius lwrist
    lwrist lhand lthumb
    lhand lfingers
    rclavicle rhumerus
    rhumerus rradius
    rradius rwrist
    rwrist rhand rthumb
    rhand rfingers
  end

#!OML:ASF H:\Male1\Project 1\Capture day 1\Session 1\Male1.ASF
:FULLY-SPECIFIED
:DEGREES
80
root 17.3011 18.0589 0.555334 -165.314 -82.5073 168.457
lowerback 18.0548 3.00832 -4.63681
upperback 8.4686 2.43643 -2.8979
thorax -1.09372 0.869071 -0.890647
lowerneck -8.87192 4.63739 9.78727
upperneck 21.7615 5.08269 -3.80843
head 8.6088 2.66078 -2.42496
rclavicle -1.74931e-014 8.74653e-015
rhumerus -27.4461 8.1302 -81.8984
rradius 39.995
rwrist -26.801
rhand -15.9116 1.608
rfingers 7.12502
rthumb 10.2854 -28.1205
lclavicle -1.74931e-014 8.74653e-015
lhumerus -25.7342 -8.91 82.3109
lradius 37.0705
lwrist 5.81958
lhand -20.2194 10.6225
lfingers 7.12502
lthumb 6.128 40.5138
rfemur -41.0923 -2.78648 17.7544
rtibia 95.1107
rfoot -15.1382 -17.9452
rtoes -25.8184
lfemur -26.6212 0.362894 -28.0252
ltibia 47.2063
lfoot -25.9812 11.4208
ltoes -4.80042
81
root 17.2146 18.1963 0.584678 -168.455 -82.3656 171.316
lowerback 18.4072 2.8854 -4.41561
upperback 8.50814 2.29193 -2.63672
thorax -1.23438 0.797083 -0.722883
lowerneck -8.96593 4.81264 9.8839
upperneck 22.0979 5.36852 -4.16155
head 8.77434 2.76725 -2.53058
rclavicle 2.74323e-014 -1.74931e-014
rhumerus -27.298 7.98411 -81.7002
rradius 40.0149
rwrist -26.4653
rhand -15.9262 1.69012
rfingers 7.12502
rthumb 10.2714 -28.0391
lclavicle 2.74323e-014 -1.74931e-014
lhumerus -25.8933 -9.14949 82.5921
lradius 37.272
lwrist 5.94243
lhand -20.1436 10.6105
lfingers 7.12502
lthumb 6.20121 40.4997
rfemur -45.1018 -2.75591 18.1417
rtibia 99.6008
rfoot -15.709 -16.8692
rtoes -27.2621
lfemur -23.9866 -0.483147 -27.8496
ltibia 43.734
lfoot -25.4029 12.4087
ltoes -1.52703
82
root 17.125 18.3208 0.611499 -171.387 -82.2506 173.93
lowerback 18.7432 2.75669 -4.19547
upperback 8.53581 2.14518 -2.35694
thorax -1.37911 0.724278 -0.532598
lowerneck -9.07135 4.96911 9.9555
upperneck 22.4308 5.63324 -4.50807
head 8.9403 2.86121 -2.63219
rclavicle -1.98785e-015 3.49861e-014
rhumerus -27.2602 7.86872 -81.4821
rradius 40.098
rwrist -26.1825
rhand -15.8876 1.73762
rfingers 7.12502
rthumb 10.3086 -27.9897
lclavicle -1.98785e-015 3.49861e-014
lhumerus -26.1044 -9.3715 82.891
lradius 37.4386
lwrist 6.04443
lhand -20.0183 10.5662
lfingers 7.12502
lthumb 6.3222 40.4518
rfemur -48.902 -2.67673 18.5664
rtibia 103.318
rfoot -16.2 -15.9583
rtoes -28.3686
lfemur -21.3132 -1.40512 -27.7255
ltibia 40.246
lfoot -24.9365 13.6915
ltoes 1.06481
83
root 17.0328 18.4312 0.635296 -174.089 -82.1765 176.289
lowerback 19.0608 2.62118 -3.99818
upperback 8.54952 1.99143 -2.05652
thorax -1.52958 0.647869 -0.304388
lowerneck -9.15342 5.10305 10.0125
upperneck 22.708 5.87742 -4.86435
head 9.08262 2.94269 -2.73745
rclavicle -1.78906e-014 1.66979e-014
rhumerus -27.323 7.79071 -81.2304
rradius 40.2379
rwrist -25.9923
rhand -15.7765 1.73596
rfingers 7.12502
rthumb 10.4158 -27.986
lclavicle -1.78906e-014 1.66979e-014
lhumerus -26.3597 -9.57815 83.2092
lradius 37.5769
lwrist 6.1333
lhand -19.8598 10.4312
lfingers 7.12502
lthumb 6.47513 40.3122
rfemur -52.467 -2.56731 19.0298
rtibia 106.25
rfoot -16.6284 -15.2779
rtoes -29.2046
lfemur -18.6428 -2.37216 -27.6562
ltibia 36.8093
lfoot -24.5436 15.2063
ltoes 2.75815
84
root 16.9377 18.5271 0.656074 -176.734 -82.1421 178.579
lowerback 19.3419 2.47976 -3.81423
upperback 8.55176 1.83456 -1.73454
thorax -1.67345 0.569949 -0.0427976
lowerneck -9.19829 5.2135 10.0617
upperneck 22.9067 6.09762 -5.22288
head 9.19005 3.01199 -2.84536
rclavicle 1.90833e-014 5.00937e-014
rhumerus -27.4644 7.75425 -80.944
rradius 40.4233
rwrist -25.9138
rhand -15.6161 1.65978
rfingers 7.12502
rthumb 10.5705 -28.0544
lclavicle 1.90833e-014 5.00937e-014
lhumerus -26.6423 -9.75479 83.5366
lradius 37.6936
lwrist 6.20472
lhand -19.6866 10.2305
lfingers 7.12502
lthumb 6.64239 40.1063
rfemur -55.7564 -2.41746 19.5519
rtibia 108.39
rfoot -16.9987 -14.8079
rtoes -29.9671
lfemur -16.0196 -3.32354 -27.6139
ltibia 33.5017
lfoot -24.1565 16.7572
ltoes 3.84044
